# xmcd CD database file
#
# Track frame offsets:
#	150
#	13038
#	33234
#	48028
#	72051
#	82794
#	103180
#	115538
#	156487
#	181543
#	196170
#	221387
#
# Disc length: 3231 seconds
#
# Revision: 0
# Processed by: cddbd v1.5.2PL0 Copyright (c) Steve Scherf et al.
# Submitted via: CDex 1.50
#
DISCID=870c9d0c
DTITLE=Kim Weizendorf - Maerkische Impressionen
DYEAR=2007
DGENRE=Jazz
TTITLE0=On Sunday
TTITLE1=Sonntagmorgen in Berlin
TTITLE2=Schwarzer Kater
TTITLE3=Die Spree
TTITLE4=Erster Schnee
TTITLE5=Natascha
TTITLE6=Bewölkung
TTITLE7=Rapsfeld
TTITLE8=Improvisation for Keith Emerson
TTITLE9=Prelude in e
TTITLE10=Time after Time
TTITLE11=Fuge e-moll
EXTD=YEAR: 2007
EXTT0=
EXTT1=
EXTT2=
EXTT3=
EXTT4=
EXTT5=
EXTT6=
EXTT7=
EXTT8=
EXTT9=
EXTT10=
EXTT11=
PLAYORDER=
